# xmcd
#
# Track frame offsets: 
#        190
#        11732
#        24085
#        46235
#        57825
#        78417
#        95732
#        114627
#        131972
#        147040
#        163057
#
# Disc length: 2334 seconds
#
# Revision: 2
# Processed by: cddbd v1.5.2PL0 Copyright (c) Steve Scherf et al.
# Submitted via: ExactAudioCopy v0.95a4
#
DISCID=8e091c0b
DTITLE=Katy Moffatt - Child Bride
DYEAR=1990
DGENRE=Folk
TTITLE0=Child Bride
TTITLE1=Blow Out the Candle
TTITLE2=We Ran
TTITLE3=You Better Move On
TTITLE4=Playin'Fool
TTITLE5=Big Boss Man
TTITLE6=False Alarm
TTITLE7=Lonely Avenue
TTITLE8=You Done Me Wrong
TTITLE9=In a Moment
TTITLE10=Settin' the Woods on Fire
EXTD=
EXTT0=
EXTT1=
EXTT2=
EXTT3=
EXTT4=
EXTT5=
EXTT6=
EXTT7=
EXTT8=
EXTT9=
EXTT10=
PLAYORDER=
